<svg viewBox="0 0 68.4936 44.8628" xmlns="http://www.w3.org/2000/svg" xmlns:xlink="http://www.w3.org/1999/xlink" width="68.493591" height="44.862823" fill="none" customFrame="#000000">
	<defs>
		<g id="pixso_custom_effect_0">
			<effect x="0.000000" y="4.000000" visibility="visible" fill="rgb(0,0,0)" fill-opacity="0.247058824" effectType="dropShadow" stdDeviation="4" radius="0" />
		</g>
		<filter id="filter_0" width="68.493591" height="44.862823" x="0.000000" y="0.000000" filterUnits="userSpaceOnUse" customEffect="url(#pixso_custom_effect_0)" color-interpolation-filters="sRGB">
			<feFlood flood-opacity="0" result="BackgroundImageFix" />
			<feOffset dx="0.000000" dy="4.000000" in="SourceAlpha" />
			<feGaussianBlur stdDeviation="1.33333337" />
			<feColorMatrix type="matrix" values="0 0 0 0 0 0 0 0 0 0 0 0 0 0 0 0 0 0 0.247059 0 " />
			<feBlend result="effect_dropShadow_1" in2="BackgroundImageFix" mode="normal" />
			<feBlend result="shape" in="SourceGraphic" in2="effect_dropShadow_1" mode="normal" />
		</filter>
	</defs>
	<g filter="url(#filter_0)">
		<path id="–" d="M41.3465 7.6611C40.5022 7.39185 39.5631 7.05941 38.5292 6.66377C36.8692 6.04782 35.6132 5.5867 34.761 5.28041C33.358 4.77607 32.0868 4.33832 30.9475 3.96716C28.1027 3.04034 25.496 2.34161 23.1272 1.87098C20.287 1.30668 17.5537 1.01657 14.9274 1.00068C11.9759 0.98281 9.06308 1.3081 6.18889 1.97654L6.07564 1.48954L6.43275 1.83949L6.3758 1.89761L6.01869 1.54765L6.48554 1.72667L5.46044 4.39993L4.99359 4.22091L4.73251 3.79449L5.02236 3.61702L5.02755 3.61401C5.14844 3.54392 5.3238 3.45876 5.55364 3.35852C5.99711 3.16512 6.49855 2.9853 7.05797 2.81906C7.83414 2.58841 8.67173 2.39994 9.57071 2.25366C10.6894 2.07162 11.8729 1.96028 13.1211 1.91963C16.2108 1.84714 19.6232 2.18444 23.3583 2.93155C28.2597 3.91194 33.5159 5.56309 39.1269 7.88501L40.1901 8.325L39.143 8.80203C37.0144 9.77169 35.4222 10.4871 34.3662 10.9482C32.6025 11.7184 31.0334 12.3632 29.6588 12.8827L29.4518 12.9609L29.2548 12.8604C28.8229 12.64 28.3724 12.3803 27.9033 12.0811L28.1722 11.6595L27.9274 12.0956C26.4755 11.2806 25.3755 10.6747 24.6276 10.2779C23.4671 9.66206 22.4462 9.16146 21.565 8.77607C20.5347 8.32549 19.5975 7.98756 18.7533 7.76226C17.8338 7.51686 16.9869 7.39416 16.2127 7.39416C15.6809 7.39416 15.1711 7.49921 14.6833 7.70932C14.2123 7.91221 13.7942 8.19837 13.4289 8.5678C13.0641 8.93675 12.7815 9.35892 12.581 9.83432C12.3741 10.3251 12.2706 10.8367 12.2706 11.369C12.2706 11.9161 12.3744 12.4397 12.5821 12.9397C12.7825 13.4223 13.0653 13.8499 13.4305 14.2226C13.7949 14.5945 14.2128 14.8823 14.684 15.0861C15.1708 15.2966 15.6804 15.4019 16.2127 15.4019C17.9974 15.4019 20.0541 15.1067 22.3828 14.5164C24.4158 14.0011 26.7219 13.2421 29.3008 12.2396L29.5194 12.1546L29.7245 12.2683C31.2722 13.1267 32.6095 13.8404 33.7366 14.4095C35.2316 15.1644 36.6485 15.8177 37.9872 16.3694L38.8453 16.7231L38.0779 17.2451C37.9133 17.3571 37.7294 17.4692 37.5261 17.5816C37.4074 17.6472 37.2317 17.7394 36.999 17.8581L36.9988 17.8582L36.7716 17.4128L37.0327 17.8393C36.0259 18.4557 35.1555 18.974 34.4216 19.3941C33.4597 19.9447 32.5703 20.4217 31.7536 20.825L31.5183 20.9412L31.289 20.8136C30.3981 20.3177 29.6359 19.909 29.0022 19.5877C28.2064 19.184 27.485 18.8508 26.8379 18.588C25.3481 17.9829 24.0654 17.6804 22.9897 17.6804C22.6679 17.6804 22.3585 17.7445 22.0614 17.8728C21.774 17.9968 21.5183 18.1717 21.2943 18.3972C21.0708 18.6221 20.8976 18.8786 20.7747 19.1665C20.6484 19.4622 20.5853 19.7688 20.5853 20.0861C20.5853 20.4188 20.649 20.7378 20.7763 21.0432C20.8994 21.3381 21.0728 21.5998 21.2966 21.8283C21.5198 22.056 21.7751 22.2322 22.0624 22.357C22.3584 22.4856 22.6676 22.5499 22.9897 22.5499C24.2972 22.5499 25.6863 22.3248 27.1573 21.8745C28.4044 21.4927 29.7882 20.9218 31.3087 20.1619L31.5345 20.049L31.7594 20.1637C32.0747 20.3246 32.5226 20.5827 33.1031 20.9382C34.5781 21.7982 36.1973 22.6625 37.9607 23.5312L38.7748 23.9323L38.0008 24.4062C37.0842 24.9674 36.2662 25.5364 35.5467 26.1133L35.5256 26.1302L35.5028 26.1447C35.2309 26.3181 34.8306 26.5863 34.302 26.9491C33.6684 27.384 33.1928 27.6986 32.8753 27.893L32.6583 28.0259L32.4231 27.9286C31.4039 27.507 30.4218 27.1728 29.4767 26.9261C28.572 26.69 27.8524 26.5719 27.3179 26.5719C27.1361 26.5719 26.9608 26.6087 26.7922 26.6825C26.6272 26.7547 26.4801 26.8566 26.3509 26.9884C26.2211 27.1209 26.1205 27.2722 26.0491 27.4423C25.9754 27.6177 25.9386 27.8001 25.9386 27.9896C25.9386 28.1791 25.9754 28.3616 26.0491 28.537C26.1205 28.7071 26.2211 28.8584 26.3509 28.9908C26.4801 29.1226 26.6272 29.2246 26.7922 29.2968C26.9608 29.3705 27.1361 29.4074 27.3179 29.4074C27.9949 29.4074 28.7776 29.2131 29.6661 28.8246C30.4423 28.4851 31.3521 27.9709 32.3957 27.2818L32.6313 27.1263L32.8862 27.2476C32.992 27.298 33.1531 27.3741 33.3695 27.4759C33.8512 27.7024 34.2157 27.8771 34.4632 28C34.8816 28.2077 35.2594 28.4084 35.5967 28.6021C36.2255 28.9585 36.816 29.3356 37.3681 29.7332C38.0823 30.2476 38.7052 30.7778 39.2369 31.3238C39.8852 31.9895 40.3869 32.668 40.7419 33.3592C41.1619 34.1771 41.372 35.0023 41.372 35.8351L41.372 35.9513L40.872 35.9513L40.9659 35.4602L42.7883 35.8089L42.6944 36.3L42.2454 36.08L42.3023 35.9638L42.7513 36.1838L42.2513 36.1838C42.2513 36.1645 42.253 36.138 42.2564 36.1041C42.2869 35.8002 42.2794 35.4704 42.2338 35.1145C42.1444 34.4157 41.9223 33.7256 41.5675 33.044C41.033 32.0214 40.2589 31.0785 39.2451 30.2155C37.8738 29.048 36.0985 28.0553 33.9192 27.2373L33.051 26.9115L33.8004 26.3652C33.9377 26.2651 34.1509 26.1167 34.4401 25.92C34.7204 25.7293 34.9248 25.5871 35.0533 25.4935C35.4652 25.1852 36.0983 24.7459 36.9524 24.1756C37.2814 23.956 37.526 23.7916 37.6863 23.6826L37.9197 23.5238L38.1762 23.6416C39.3922 24.2 40.5003 24.6222 41.5006 24.9083C42.6411 25.2344 43.6844 25.3975 44.6307 25.3975C44.8808 25.3975 45.1194 25.3475 45.3465 25.2475C45.5653 25.1511 45.7596 25.0148 45.9293 24.8387C46.0985 24.6631 46.2296 24.4623 46.3226 24.2363C46.4179 24.0045 46.4656 23.764 46.4656 23.5148C46.4656 23.2656 46.4179 23.0252 46.3226 22.7934C46.2296 22.5674 46.0985 22.3666 45.9293 22.191C45.7596 22.0149 45.5653 21.8786 45.3465 21.7822C45.1194 21.6822 44.8808 21.6322 44.6307 21.6322C43.7555 21.6322 42.7396 21.8824 41.5831 22.3828C40.6392 22.7913 39.5237 23.406 38.2364 24.227L38.007 24.3733L37.7595 24.2601C37.1005 23.9586 36.3519 23.5823 35.5138 23.131C35.0152 22.8625 34.2707 22.4487 33.2805 21.8894C33.0267 21.746 32.8368 21.6389 32.7107 21.5678L32.9559 21.1322L32.7287 21.5775C32.1888 21.3021 31.782 21.0845 31.5081 20.9248L30.7047 20.4563L31.5386 20.0446C32.3416 19.6481 33.2023 19.1921 34.1207 18.6767C34.8398 18.2731 35.6758 17.7863 36.6288 17.2162C37.1535 16.9102 37.525 16.683 37.7432 16.5345L37.9651 16.3836L38.2134 16.485C40.1738 17.2852 42.0719 17.8919 43.9076 18.3053C45.9793 18.7717 48.0238 19.005 50.0409 19.005C50.4621 19.005 50.8636 18.9231 51.2453 18.7594C51.6145 18.601 51.9412 18.377 52.2252 18.0871C52.5099 17.7966 52.7302 17.4621 52.8861 17.0835C53.0479 16.6908 53.1287 16.2775 53.1287 15.8438C53.1287 15.4251 53.0483 15.0241 52.8874 14.6407C52.7315 14.2693 52.5114 13.9401 52.2271 13.6532C51.9422 13.3657 51.6153 13.1432 51.2461 12.9857C50.8634 12.8223 50.4617 12.7407 50.0409 12.7407C49.1252 12.7407 48.1613 12.8603 47.1491 13.0996C46.2238 13.3183 45.2412 13.6414 44.2014 14.0688C43.2897 14.4436 42.3002 14.9132 41.233 15.4776C40.3908 15.923 39.4062 16.479 38.2791 17.1458L38.0626 17.2738L37.8308 17.1764C35.2896 16.1087 32.5194 14.7246 29.5202 13.0243L28.6132 12.5101L29.5819 12.1248C31.1024 11.5199 32.7982 10.8055 34.6694 9.98153C36.0419 9.37713 37.7551 8.60335 39.8091 7.66018L40.0177 8.11456L39.7905 7.66918C39.9803 7.57232 40.2746 7.44292 40.6732 7.28098C40.9492 7.16884 41.1555 7.08182 41.2919 7.01995L41.4768 6.93608L41.6678 7.00488C43.3476 7.60986 44.782 8.10512 45.971 8.49068C47.5026 8.98728 48.9117 9.39766 50.1986 9.72182C51.6692 10.0923 53.0614 10.3716 54.375 10.5598C55.8133 10.7659 57.1971 10.869 58.5264 10.869C59.3608 10.869 60.0984 10.7819 60.7391 10.6077C61.3525 10.441 61.8652 10.1975 62.2773 9.87725C63.0882 9.24711 63.4936 8.33023 63.4936 7.12662C63.4936 6.4366 63.363 5.77673 63.1019 5.14702C62.8499 4.53919 62.4942 4.00087 62.0348 3.53207C61.576 3.06398 61.0497 2.70171 60.4558 2.44527C59.8419 2.18019 59.1988 2.04765 58.5264 2.04765C57.5562 2.04765 56.424 2.19799 55.1301 2.49868C53.9463 2.77375 52.5955 3.18271 51.0778 3.72555C49.7701 4.19325 48.2602 4.78941 46.5483 5.51403C45.317 6.03519 43.7019 6.74416 41.7031 7.64092L41.5287 7.71918L41.3465 7.6611ZM41.6503 6.70837L41.4984 7.18473L41.2938 6.72854C43.2991 5.82887 44.9207 5.11706 46.1585 4.59312C47.888 3.8611 49.4155 3.25805 50.741 2.78396C52.2949 2.22818 53.6825 1.8084 54.9037 1.52463C56.2722 1.20664 57.4797 1.04765 58.5264 1.04765C59.3365 1.04765 60.1118 1.2075 60.8522 1.52719C61.5664 1.83555 62.1986 2.27053 62.749 2.83215C63.2987 3.39307 63.7242 4.03702 64.0257 4.76399C64.3376 5.51632 64.4936 6.30386 64.4936 7.12662C64.4936 7.8786 64.3597 8.55207 64.0918 9.14704C63.821 9.74853 63.4207 10.2551 62.8909 10.6669C62.3734 11.069 61.7436 11.3709 61.0014 11.5727C60.2748 11.7702 59.4498 11.869 58.5264 11.869C57.1495 11.869 55.7185 11.7625 54.2332 11.5497C52.885 11.3565 51.4587 11.0705 49.9543 10.6915C48.6459 10.3619 47.2153 9.94539 45.6626 9.44192C44.4633 9.05306 43.0188 8.55432 41.329 7.94572L41.4984 7.4753L41.7049 7.93066C41.5564 7.99804 41.3379 8.0903 41.0495 8.20745C40.6775 8.3586 40.4093 8.4761 40.245 8.55994L40.2358 8.56463L40.2264 8.56894C38.1677 9.51431 36.4497 10.2902 35.0724 10.8967C33.1901 11.7256 31.4832 12.4447 29.9516 13.0539L29.7668 12.5894L30.0133 12.1544C32.9784 13.8353 35.7133 15.202 38.2182 16.2545L38.0245 16.7155L37.7699 16.2851C38.9107 15.6103 39.9093 15.0464 40.7655 14.5936C41.8612 14.0141 42.8798 13.5309 43.8212 13.1439C44.9098 12.6964 45.9424 12.3573 46.9191 12.1264C48.0068 11.8692 49.0474 11.7407 50.0409 11.7407C50.598 11.7407 51.1306 11.8491 51.6386 12.0659C52.1278 12.2747 52.5607 12.5692 52.9374 12.9493C53.3128 13.3282 53.6035 13.763 53.8095 14.2537C54.0223 14.7608 54.1287 15.2909 54.1287 15.8438C54.1287 16.4094 54.0227 16.9496 53.8107 17.4643C53.6054 17.9629 53.3149 18.4038 52.9394 18.7871C52.5631 19.171 52.1298 19.4681 51.6395 19.6784C51.1319 19.8961 50.5991 20.005 50.0409 20.005C47.9496 20.005 45.832 19.7636 43.6879 19.2808C41.7981 18.8553 39.8473 18.232 37.8355 17.4109L38.0245 16.9479L38.3057 17.3613C38.0683 17.5228 37.6805 17.7605 37.1422 18.0744C36.1812 18.6492 35.3372 19.1406 34.6102 19.5487C33.6764 20.0728 32.8002 20.5369 31.9814 20.9412L31.76 20.4929L32.0119 20.061C32.2695 20.2112 32.66 20.4198 33.1832 20.6868L33.1923 20.6914L33.2012 20.6965C33.3277 20.7676 33.518 20.875 33.7723 21.0187C34.7567 21.5746 35.4952 21.9852 35.9879 22.2505C36.807 22.6915 37.5362 23.0583 38.1755 23.3507L37.9675 23.8054L37.6987 23.3839C39.0308 22.5343 40.1932 21.8947 41.186 21.4651C42.4692 20.9098 43.6174 20.6322 44.6307 20.6322C45.0212 20.6322 45.3942 20.7105 45.7497 20.8671C46.0886 21.0164 46.3885 21.2264 46.6494 21.4971C46.9067 21.7641 47.106 22.0694 47.2474 22.4129C47.3929 22.7665 47.4656 23.1338 47.4656 23.5148C47.4656 23.8958 47.3929 24.2631 47.2474 24.6168C47.106 24.9603 46.9067 25.2655 46.6494 25.5326C46.3885 25.8032 46.0886 26.0132 45.7497 26.1626C45.3942 26.3192 45.0212 26.3975 44.6307 26.3975C43.591 26.3975 42.456 26.2216 41.2257 25.8698C40.1766 25.5697 39.021 25.1299 37.7589 24.5504L37.9675 24.096L38.2488 24.5094C38.0861 24.6201 37.8391 24.786 37.5077 25.0072C36.6685 25.5676 36.0467 25.999 35.6424 26.3016C35.5051 26.4016 35.2918 26.55 35.0026 26.7468C34.7223 26.9375 34.5179 27.0796 34.3895 27.1733L34.0949 26.7692L34.2706 26.3011C36.559 27.16 38.4333 28.211 39.8934 29.454C41.0058 30.4011 41.8595 31.4438 42.4545 32.5822C42.8642 33.3692 43.1212 34.171 43.2257 34.9876C43.2809 35.4189 43.2895 35.8243 43.2514 36.204C43.2506 36.2118 43.2501 36.2166 43.25 36.2185C43.2509 36.2087 43.2513 36.1971 43.2513 36.1838L43.2513 36.2997L42.9754 36.8628L40.372 36.3647L40.372 35.8351C40.372 34.5602 39.7548 33.289 38.5205 32.0215C38.0295 31.5172 37.4505 31.025 36.7837 30.5447C36.2609 30.1682 35.6994 29.8097 35.0989 29.4693C34.7791 29.2857 34.4189 29.0945 34.0184 28.8957C33.7773 28.7759 33.4191 28.6043 32.9439 28.3808C32.7262 28.2784 32.5636 28.2016 32.4562 28.1505L32.6712 27.6991L32.9467 28.1163C31.8554 28.8369 30.8954 29.3784 30.0668 29.7408C29.0506 30.1852 28.1343 30.4074 27.3179 30.4074C26.9967 30.4074 26.6879 30.3426 26.3915 30.213C26.108 30.089 25.8564 29.9149 25.6367 29.6907C25.4177 29.4673 25.2478 29.2118 25.1271 28.9242C25.0014 28.625 24.9386 28.3135 24.9386 27.9896C24.9386 27.6658 25.0014 27.3543 25.1271 27.0551C25.2478 26.7675 25.4177 26.512 25.6367 26.2885C25.8564 26.0644 26.108 25.8903 26.3915 25.7663C26.6879 25.6367 26.9967 25.5719 27.3179 25.5719C27.938 25.5719 28.7418 25.7008 29.7293 25.9586C30.7186 26.2168 31.744 26.5655 32.8054 27.0046L32.6142 27.4666L32.3532 27.0402C32.6559 26.8548 33.1168 26.5497 33.7361 26.1246C34.274 25.7554 34.6837 25.4811 34.9651 25.3016L35.2339 25.7232L34.9212 25.3331C35.6736 24.7298 36.5261 24.1366 37.4786 23.5533L37.7397 23.9798L37.5188 24.4283C35.7344 23.5493 34.0885 22.6702 32.581 21.791C32.0225 21.4491 31.5972 21.2036 31.305 21.0545L31.5322 20.6091L31.7557 21.0564C30.1856 21.8412 28.7503 22.4326 27.45 22.8307C25.8837 23.3102 24.3969 23.5499 22.9897 23.5499C22.529 23.5499 22.0871 23.458 21.664 23.2743C21.2572 23.0976 20.8967 22.8489 20.5824 22.5282C20.2688 22.2081 20.0258 21.8415 19.8534 21.4282C19.6747 20.9996 19.5853 20.5523 19.5853 20.0861C19.5853 19.6324 19.6752 19.195 19.855 18.7738C20.0281 18.3684 20.2714 18.008 20.5848 17.6925C20.8995 17.3757 21.2596 17.1297 21.665 16.9547C22.0886 16.7718 22.5302 16.6804 22.9897 16.6804C23.632 16.6804 24.3218 16.7698 25.0591 16.9487C25.7218 17.1096 26.4402 17.3471 27.2142 17.6615C27.8871 17.9348 28.6339 18.2796 29.4546 18.6958C30.0997 19.023 30.8733 19.4377 31.7754 19.9398L31.5322 20.3767L31.3108 19.9283C32.1093 19.5341 32.9806 19.0667 33.9248 18.5262C34.6502 18.111 35.512 17.5977 36.5105 16.9864L36.5271 16.9763L36.5443 16.9675L36.5445 16.9674C36.7673 16.8537 36.9333 16.7667 37.0423 16.7064C37.2186 16.609 37.3763 16.5129 37.5154 16.4183L37.7967 16.8317L37.6062 17.294C36.2438 16.7325 34.8037 16.0686 33.2858 15.3021C32.1473 14.7272 30.7985 14.0075 29.2395 13.1428L29.482 12.7056L29.6632 13.1716C27.0461 14.189 24.7012 14.9604 22.6285 15.4858C20.2192 16.0965 18.0806 16.4019 16.2127 16.4019C15.5424 16.4019 14.9005 16.2692 14.2871 16.0039C13.6958 15.7483 13.1722 15.3878 12.7162 14.9225C12.2609 14.4579 11.9084 13.9248 11.6586 13.3232C11.3999 12.7005 11.2706 12.049 11.2706 11.369C11.2706 10.7019 11.4003 10.0608 11.6596 9.4458C11.91 8.85204 12.2627 8.32501 12.7178 7.86472C13.1743 7.40304 13.6976 7.0451 14.2877 6.7909C14.9018 6.52641 15.5434 6.39416 16.2127 6.39416C17.0744 6.39416 18.0072 6.52813 19.0112 6.79608C19.9042 7.03442 20.889 7.38901 21.9657 7.85985C22.87 8.25535 23.9135 8.76691 25.0963 9.39453C25.8512 9.79508 26.958 10.4047 28.4169 11.2235L28.4292 11.2304L28.441 11.238C28.8831 11.5199 29.3059 11.7638 29.7092 11.9696L29.482 12.415L29.3052 11.9473C30.6642 11.4337 32.2178 10.7952 33.966 10.0318C35.0172 9.57276 36.6046 8.85951 38.7284 7.89201L38.9357 8.34702L38.7445 8.80902C33.1937 6.51202 27.9996 4.87972 23.1622 3.91212C19.4995 3.17952 16.1634 2.84851 13.1537 2.9191C11.9484 2.95835 10.8076 3.06554 9.73132 3.24067C8.87435 3.38012 8.07819 3.5591 7.34282 3.77763C6.82256 3.93223 6.35942 4.09807 5.95339 4.27514C5.75848 4.36015 5.61706 4.42814 5.52913 4.47912L5.27834 4.04656L5.53942 4.47299L4 5.41553L5.58897 1.27178L5.82049 1.03553L5.96237 1.00253C8.91307 0.316299 11.9034 -0.0176476 14.9335 0.000693887C17.6233 0.0169758 20.4195 0.313463 23.3221 0.890156C25.7297 1.36851 28.3748 2.07724 31.2573 3.01635C32.4061 3.39062 33.6868 3.83162 35.0993 4.33935C35.9547 4.64681 37.2171 5.1103 38.8866 5.72981C39.9028 6.11869 40.8241 6.44488 41.6503 6.70837ZM11.4984 11.369C11.4984 10.7305 11.6215 10.1181 11.8675 9.53191C12.1054 8.96505 12.4411 8.46257 12.8745 8.02445C13.3092 7.58496 13.8085 7.24448 14.3723 7.00298C14.9581 6.75207 15.5715 6.62662 16.2127 6.62662C17.0598 6.62662 17.9778 6.76035 18.9667 7.02783C19.8447 7.26528 20.8158 7.61901 21.8799 8.08902C22.7687 8.48158 23.8016 8.9918 24.9785 9.61967C25.688 9.9982 26.7892 10.6064 28.282 11.4442L28.2925 11.4501L28.2938 11.4508L28.2951 11.4515L28.2977 11.453L28.303 11.456C28.437 11.534 28.6255 11.6398 28.8685 11.7734C29.119 11.9111 29.3126 12.0197 29.4491 12.0993L30.3355 12.6162L29.3822 12.9958C26.8644 13.9984 24.5727 14.7607 22.5071 15.2825C20.1664 15.8738 18.0683 16.1694 16.2127 16.1694C15.5705 16.1694 14.9568 16.0436 14.3716 15.7918C13.8067 15.5489 13.3071 15.2058 12.8728 14.7627C12.4393 14.3202 12.1038 13.8117 11.8664 13.237C11.6211 12.6431 11.4984 12.0204 11.4984 11.369L11.4984 11.369ZM12.4984 11.369C12.4984 11.8881 12.5958 12.3835 12.7907 12.8552C12.9786 13.3103 13.2441 13.7128 13.5871 14.0627C13.9293 14.412 14.3226 14.6822 14.7667 14.8732C15.2258 15.0707 15.7078 15.1694 16.2127 15.1694C17.9854 15.1694 20.0019 14.8839 22.2622 14.3129C24.2852 13.8019 26.5352 13.0531 29.0123 12.0667L29.1973 12.5312L28.9454 12.9632C28.8162 12.8878 28.63 12.7834 28.387 12.6498C28.1365 12.5122 27.9453 12.4049 27.8135 12.328L27.8083 12.3251L27.8057 12.3236L27.8044 12.3228L27.803 12.3221L27.7925 12.3162C26.306 11.4819 25.2111 10.8772 24.5078 10.502C23.3527 9.88574 22.3421 9.38634 21.4759 9.00377C20.4581 8.55424 19.5347 8.21737 18.7057 7.99315C17.8022 7.74879 16.9712 7.62662 16.2127 7.62662C15.7083 7.62662 15.2261 7.72515 14.766 7.9222C14.322 8.11238 13.9285 8.38088 13.5854 8.72771C13.2428 9.07404 12.9775 9.47112 12.7896 9.91893C12.5955 10.3814 12.4984 10.8647 12.4984 11.369L12.4984 11.369ZM19.8131 20.0861C19.8131 19.6611 19.8963 19.2525 20.0628 18.8602C20.2235 18.4816 20.4498 18.1455 20.7416 17.8521C21.0347 17.5574 21.3709 17.3289 21.7501 17.1666C22.1453 16.9974 22.5585 16.9128 22.9897 16.9128C23.6047 16.9128 24.269 16.9989 24.9827 17.171C25.6246 17.3258 26.3226 17.5544 27.0768 17.8568C27.7346 18.1205 28.4649 18.4527 29.2675 18.8533C29.9057 19.1718 30.6648 19.5722 31.5447 20.0544L32.3909 20.5182L31.524 20.9421C29.9965 21.689 28.5923 22.2535 27.3113 22.6356C25.7873 23.0902 24.3467 23.3175 22.9897 23.3175C22.5573 23.3175 22.1437 23.2324 21.749 23.0624C21.3684 22.8984 21.0317 22.667 20.739 22.3684C20.447 22.0704 20.221 21.7281 20.0611 21.3415C19.8958 20.9419 19.8131 20.5235 19.8131 20.0861L19.8131 20.0861ZM20.8131 20.0861C20.8131 20.391 20.8704 20.682 20.9851 20.9592C21.0957 21.2263 21.2517 21.4628 21.4533 21.6684C21.6541 21.8734 21.8846 22.0319 22.1447 22.144C22.4131 22.2596 22.6948 22.3175 22.9897 22.3175C24.2494 22.3175 25.5947 22.1041 27.0255 21.6773C28.2537 21.3109 29.6068 20.7664 31.0848 20.0437L31.3044 20.4929L31.0641 20.9314C30.1954 20.4553 29.4476 20.0608 28.8209 19.748C28.0427 19.3596 27.3373 19.0385 26.7047 18.785C25.2544 18.2036 24.0161 17.9128 22.9897 17.9128C22.6952 17.9128 22.4131 17.9705 22.1436 18.0859C21.8834 18.1973 21.6524 18.3544 21.4507 18.5572C21.2495 18.7595 21.0938 18.9907 20.9834 19.2508C20.8698 19.5183 20.8131 19.7967 20.8131 20.0861L20.8131 20.0861ZM25.1664 27.9896C25.1664 27.6949 25.2224 27.4125 25.3345 27.1424C25.4428 26.8813 25.5958 26.6499 25.7933 26.4483C25.9916 26.246 26.2195 26.0892 26.4771 25.9779C26.745 25.8622 27.0252 25.8043 27.3179 25.8043C27.9226 25.8043 28.6878 25.9234 29.6137 26.1615C30.5772 26.4093 31.5667 26.7491 32.5821 27.1808L33.4704 27.5585L32.6494 28.0662C31.5664 28.736 30.6498 29.2318 29.8997 29.5533C28.9332 29.9677 28.0726 30.1749 27.3179 30.1749C27.0252 30.1749 26.745 30.1171 26.4771 30.0014C26.2195 29.89 25.9916 29.7332 25.7933 29.5309C25.5958 29.3293 25.4428 29.098 25.3345 28.8369C25.2224 28.5668 25.1664 28.2844 25.1664 27.9896ZM26.1664 27.9896C26.1664 28.1516 26.1969 28.3062 26.2581 28.4536C26.3171 28.5957 26.4002 28.7215 26.5076 28.831C26.6142 28.9399 26.7363 29.024 26.8738 29.0834C27.015 29.1444 27.1631 29.1749 27.3179 29.1749C27.9357 29.1749 28.665 28.9947 29.5057 28.6343C30.21 28.3323 31.0826 27.8594 32.1235 27.2157L32.3864 27.6409L32.1908 28.1011C31.2216 27.689 30.2795 27.3653 29.3646 27.13C28.5204 26.9129 27.8382 26.8043 27.3179 26.8043C27.1631 26.8043 27.015 26.8348 26.8738 26.8959C26.7363 26.9553 26.6142 27.0394 26.5076 27.1482C26.4002 27.2578 26.3171 27.3836 26.2581 27.5257C26.1969 27.673 26.1664 27.8277 26.1664 27.9896ZM42.4235 36.5574L40.6062 36.1865L40.5998 35.7849C40.5876 35.0078 40.3587 34.2309 39.9132 33.4541C39.4956 32.726 38.897 32.0115 38.1174 31.3108C37.399 30.6651 36.5515 30.0525 35.5749 29.4729C34.68 28.9418 33.7243 28.4658 32.7077 28.0448L31.8519 27.6904L32.6178 27.1694C32.6811 27.1264 32.7737 27.0612 32.8955 26.9741C33.0489 26.8644 33.1654 26.7833 33.2452 26.7307C33.384 26.6391 33.5156 26.5616 33.6399 26.4982L33.8336 26.3994L34.038 26.4737C36.3292 27.3068 38.211 28.3379 39.6833 29.5672C40.8225 30.5184 41.6712 31.5444 42.2291 32.6452C42.5999 33.3748 42.8458 34.1006 42.9668 34.8226C43.0125 35.0952 43.0382 35.3563 43.0438 35.6058C43.0484 35.8073 43.04 35.9843 43.0187 36.1368L42.9449 36.6638L42.4235 36.5574ZM42.6235 35.5776L42.5235 36.0675L42.0283 35.9982C42.0422 35.8992 42.0475 35.776 42.0441 35.6285C42.0395 35.4269 42.0184 35.2133 41.9806 34.9879C41.8764 34.3667 41.662 33.7365 41.3372 33.0973C40.8413 32.1189 40.0763 31.1981 39.0424 30.3348C37.6597 29.1804 35.8777 28.2067 33.6963 27.4135L33.8671 26.9436L34.0944 27.389C33.9552 27.46 33.7495 27.5928 33.4772 27.7875C33.3489 27.8793 33.2499 27.9489 33.1802 27.9962L32.899 27.5828L33.0903 27.1209C34.151 27.5601 35.1493 28.0575 36.0853 28.613C37.1184 29.2261 38.0185 29.8775 38.7858 30.5671C39.645 31.3392 40.3099 32.1357 40.7807 32.9567C41.3117 33.8826 41.5847 34.8201 41.5997 35.7691L41.0998 35.777L41.1997 35.287L42.6235 35.5776ZM47.2378 23.5148C47.2378 23.8676 47.1682 24.2081 47.0291 24.5363C46.8959 24.8505 46.709 25.1303 46.4685 25.3758C46.2273 25.6219 45.9519 25.8133 45.6423 25.95C45.3175 26.0934 44.9803 26.1651 44.6307 26.1651C43.6276 26.1651 42.5319 25.9913 41.3438 25.6437C40.3727 25.3596 39.2729 24.9372 38.0446 24.3765L37.201 23.9914L37.9864 23.4982C38.6138 23.1042 39.1723 22.7705 39.6618 22.4972C40.2598 22.1632 40.815 21.8847 41.3273 21.6617C42.5477 21.1303 43.6489 20.8646 44.6307 20.8646C44.9803 20.8646 45.3175 20.9363 45.6423 21.0797C45.9519 21.2164 46.2273 21.4078 46.4685 21.6539C46.709 21.8994 46.8959 22.1792 47.0291 22.4934C47.1682 22.8216 47.2378 23.1621 47.2378 23.5148ZM46.2378 23.5148C46.2378 23.2976 46.1947 23.0872 46.1084 22.8837C46.0245 22.6857 45.9064 22.5091 45.7542 22.3538C45.6027 22.1992 45.4308 22.0795 45.2385 21.9945C45.0423 21.9079 44.8397 21.8646 44.6307 21.8646C43.7877 21.8646 42.8196 22.1026 41.7265 22.5785C41.2443 22.7885 40.7186 23.0524 40.1494 23.3702C39.6748 23.6352 39.1311 23.9602 38.5182 24.3451L38.2523 23.9216L38.4599 23.4668C39.6446 24.0076 40.6995 24.4133 41.6246 24.6839C42.721 25.0047 43.7231 25.1651 44.6307 25.1651C44.8397 25.1651 45.0423 25.1218 45.2385 25.0351C45.4308 24.9502 45.6027 24.8305 45.7542 24.6759C45.9064 24.5206 46.0245 24.3439 46.1084 24.146C46.1947 23.9425 46.2378 23.7321 46.2378 23.5148ZM53.9009 15.8438C53.9009 16.3675 53.8015 16.8711 53.6026 17.3543C53.4095 17.8235 53.1369 18.2399 52.7848 18.6034C52.4295 18.9702 52.0209 19.2546 51.559 19.4564C51.0768 19.6671 50.5708 19.7725 50.0409 19.7725C48.0317 19.7725 45.9689 19.536 43.8525 19.0631C42.0721 18.6653 40.1648 18.0771 38.1305 17.2987L37.169 16.9307L38.0527 16.4025C39.1911 15.7221 40.1859 15.1559 41.037 14.7039C42.1026 14.138 43.0929 13.6686 44.0078 13.2959C45.0522 12.8703 46.0493 12.549 46.9992 12.3317C48.0442 12.0926 49.0581 11.9731 50.0409 11.9731C50.5697 11.9731 51.074 12.0747 51.5537 12.2779C52.0167 12.4739 52.4256 12.751 52.7807 13.109C53.1345 13.4658 53.4081 13.8761 53.6017 14.3401C53.8012 14.8183 53.9009 15.3196 53.9009 15.8438ZM52.9009 15.8438C52.9009 15.453 52.8269 15.0801 52.6787 14.725C52.5354 14.3814 52.3327 14.0774 52.0706 13.8131C51.808 13.5483 51.5058 13.3435 51.1638 13.1987C50.8087 13.0483 50.4344 12.9731 50.0409 12.9731C49.1333 12.9731 48.1938 13.0843 47.2221 13.3065C46.325 13.5117 45.3793 13.8169 44.3851 14.222C43.5015 14.5819 42.5418 15.037 41.506 15.5871C40.6697 16.0312 39.6896 16.5891 38.5657 17.2609L38.3092 16.8317L38.4879 16.3647C40.4767 17.1258 42.3376 17.6999 44.0705 18.0872C46.1152 18.5441 48.1053 18.7725 50.0409 18.7725C50.4315 18.7725 50.804 18.695 51.1585 18.5401C51.5 18.3909 51.8026 18.1801 52.0665 17.9076C52.3296 17.636 52.5334 17.3247 52.6778 16.9737C52.8266 16.6124 52.9009 16.2357 52.9009 15.8438ZM14.1625 2.68691L13.1374 2.68691L13.1374 2.18691L13.1568 2.68653C11.2494 2.76044 9.53167 2.98576 8.00347 3.36248C7.06813 3.59306 6.28771 3.85564 5.66223 4.15022L4.54937 4.67435L5.81509 1.29631L6.07527 1.23523C8.9992 0.548832 11.9677 0.214808 14.9806 0.233154C17.6553 0.249441 20.4383 0.545953 23.3296 1.12269C25.7298 1.60149 28.3652 2.31025 31.2356 3.24898C32.3822 3.62398 33.6577 4.065 35.062 4.57205C35.9325 4.88635 37.1871 5.34927 38.8257 5.9608L38.6509 6.42925L38.8119 5.95588C39.3847 6.1507 39.8127 6.29954 40.0959 6.40241C40.5726 6.57555 40.993 6.74174 41.3571 6.90097L42.4193 7.36555L41.3524 7.81921C40.9016 8.01085 40.2611 8.29924 39.4308 8.68437L39.4308 8.68437L39.2313 8.77689L39.0283 8.69242C33.7108 6.47978 28.7304 4.87129 24.0871 3.86695C20.45 3.08025 17.1418 2.68691 14.1625 2.68691L14.1625 2.68691ZM14.1625 1.68691C17.2131 1.68691 20.5918 2.08779 24.2985 2.88955C29.0011 3.90672 34.0391 5.53325 39.4125 7.76916L39.2204 8.23079L39.01 7.77721L39.01 7.77721C39.8501 7.38757 40.5004 7.09482 40.9611 6.89894L41.1567 7.35908L40.9564 7.81718C40.6118 7.66648 40.2112 7.5082 39.7545 7.34233C39.4777 7.24179 39.0562 7.09522 38.4899 6.90261L38.483 6.90025L38.4761 6.89769C36.8407 6.28737 35.5895 5.82568 34.7224 5.51262C33.3277 5.00902 32.0618 4.57129 30.9247 4.19944C28.0922 3.27308 25.4952 2.57439 23.134 2.10337C20.3052 1.53911 17.5854 1.24903 14.9746 1.23314C12.0408 1.21527 9.15058 1.54048 6.30381 2.20876L6.18954 1.722L6.65775 1.89743L5.9174 3.87331L5.44919 3.69788L5.23615 3.24554C5.92168 2.92267 6.76433 2.63801 7.76412 2.39155C9.35824 1.99858 11.1429 1.76382 13.1181 1.68728L13.1277 1.68691L14.1625 1.68691L14.1625 1.68691ZM41.5804 6.84392C43.6273 5.93576 45.2284 5.23835 46.3835 4.7517C48.0931 4.03146 49.5932 3.4409 50.8836 2.98002C52.4089 2.43525 53.7692 2.02426 54.9644 1.74705C56.3067 1.43576 57.494 1.28011 58.5264 1.28011C59.3085 1.28011 60.0556 1.43319 60.7678 1.73936C61.4556 2.03501 62.0638 2.45255 62.5924 2.99197C63.1203 3.53068 63.5288 4.15004 63.8177 4.85006C64.1164 5.57359 64.2658 6.33244 64.2658 7.12662C64.2658 8.00344 64.083 8.76096 63.7173 9.39918C63.3858 9.97784 62.9116 10.4467 62.2946 10.8059C61.3433 11.3596 60.0872 11.6365 58.5264 11.6365C57.174 11.6365 55.7687 11.5332 54.3105 11.3265C52.9783 11.1376 51.5739 10.8582 50.0973 10.4883C48.7949 10.162 47.3859 9.75197 45.8702 9.25829C44.6416 8.85812 43.2218 8.36212 41.6108 7.77029L40.4519 7.34459L41.5804 6.84392ZM41.9859 7.758L41.7832 7.30096L41.9556 6.83163C43.555 7.41918 44.9631 7.91112 46.1799 8.30746C47.6735 8.79397 49.0604 9.19757 50.3404 9.51827C51.7831 9.87973 53.1532 10.1524 54.4508 10.3364C55.8625 10.5365 57.221 10.6365 58.5264 10.6365C59.9073 10.6365 60.9957 10.4049 61.7915 9.94163C62.2542 9.67232 62.6069 9.3258 62.8497 8.90208C63.1271 8.41783 63.2658 7.82601 63.2658 7.12662C63.2658 6.46465 63.1417 5.833 62.8934 5.23166C62.6538 4.65135 62.3154 4.13809 61.8782 3.69188C61.4416 3.24639 60.9398 2.90178 60.3729 2.65806C59.7868 2.40609 59.1713 2.28011 58.5264 2.28011C57.5703 2.28011 56.4583 2.42714 55.1903 2.7212C54.0325 2.98972 52.7091 3.38991 51.2199 3.92176C49.947 4.3764 48.4642 4.96024 46.7717 5.67326C45.6224 6.15746 44.0271 6.85237 41.9859 7.758Z" fill="rgb(0,0,0)" fill-rule="nonzero" />
	</g>
</svg>
